<svg id="Layer_1" data-name="Layer 1" xmlns="http://www.w3.org/2000/svg" viewBox="0 0 114.92 114.92"><defs><style>.cls-1{fill:#f26347;}</style></defs><path class="cls-1" d="M-248.73,125.36A57.52,57.52,0,0,1-306.19,67.9a57.52,57.52,0,0,1,57.46-57.46A57.53,57.53,0,0,1-191.27,67.9,57.52,57.52,0,0,1-248.73,125.36Zm0-110.61A53.21,53.21,0,0,0-301.88,67.9a53.21,53.21,0,0,0,53.15,53.15A53.21,53.21,0,0,0-195.58,67.9,53.21,53.21,0,0,0-248.73,14.75Z" transform="translate(306.19 -10.44)"/><path class="cls-1" d="M-227.36,46.53a30,30,0,0,0-21.37-8.85,30,30,0,0,0-21.37,8.85,31.15,31.15,0,0,0-3.66,4.41,30.08,30.08,0,0,0-2.92,5.41A30.26,30.26,0,0,0-279,67.9a30,30,0,0,0,8.86,21.37,30,30,0,0,0,21.37,8.86,30,30,0,0,0,21.37-8.86,30.13,30.13,0,0,0,3.36-4,29.76,29.76,0,0,0,3-5.36,30.09,30.09,0,0,0,2.48-12A30,30,0,0,0-227.36,46.53ZM-248.73,92A24.1,24.1,0,0,1-272.81,67.9a23.87,23.87,0,0,1,1.57-8.56l41.8,23A24.07,24.07,0,0,1-248.73,92Zm-19.6-38.05a24.05,24.05,0,0,1,19.6-10.11A24.1,24.1,0,0,1-224.65,67.9a23.93,23.93,0,0,1-1.77,9Z" transform="translate(306.19 -10.44)"/><path class="cls-1" d="M-255.17,54.45a17.11,17.11,0,0,0-3.9,2.18l4.95,2.72c.25-.12.51-.24.77-.34a2.47,2.47,0,0,0,1.37-3.2A2.44,2.44,0,0,0-255.17,54.45Z" transform="translate(306.19 -10.44)"/><path class="cls-1" d="M-248.73,87.85a17.29,17.29,0,0,0,13.43-6.39L-239.71,79a12.36,12.36,0,0,1-9,3.9,12.43,12.43,0,0,1-12.41-12.41,13,13,0,0,1,.37-3.06l-4.4-2.42a17.15,17.15,0,0,0-.89,5.48A17.35,17.35,0,0,0-248.73,87.85Z" transform="translate(306.19 -10.44)"/><path class="cls-1" d="M-242.29,54.45a2.44,2.44,0,0,0-3.19,1.36,2.46,2.46,0,0,0,1.36,3.2,12.33,12.33,0,0,1,7.71,10.07l4.95,2.72c0-.42.05-.84.05-1.27a17.2,17.2,0,0,0-3.05-9.82A17.24,17.24,0,0,0-242.29,54.45Z" transform="translate(306.19 -10.44)"/><path class="cls-1" d="M-248.73,47.88a2.46,2.46,0,0,0-2.46,2.46V61l4.92,2.7V50.34A2.46,2.46,0,0,0-248.73,47.88Z" transform="translate(306.19 -10.44)"/></svg>