<svg id="Layer_1" data-name="Layer 1" xmlns="http://www.w3.org/2000/svg" viewBox="0 0 18 18"><defs><style>.cls-1{fill:#f15a5e;}</style></defs><path class="cls-1" d="M427.36,291.14a9,9,0,0,0-12.72,0,8,8,0,0,0-1.09,1.31,8.65,8.65,0,0,0-.87,1.61,9,9,0,0,0,14.68,9.8,8.56,8.56,0,0,0,1-1.18,8.72,8.72,0,0,0,.9-1.6,9,9,0,0,0-1.9-9.94ZM421,304.67a7.18,7.18,0,0,1-7.17-7.17,7,7,0,0,1,.47-2.55l12.44,6.84A7.13,7.13,0,0,1,421,304.67Zm-5.84-11.33a7.17,7.17,0,0,1,13,4.16,7.28,7.28,0,0,1-.52,2.69Z" transform="translate(-412 -288.5)"/><path class="cls-1" d="M419.08,293.49a5.74,5.74,0,0,0-1.16.65l1.48.81.23-.1a.73.73,0,0,0-.55-1.36Z" transform="translate(-412 -288.5)"/><path class="cls-1" d="M421,303.44a5.16,5.16,0,0,0,4-1.9l-1.31-.72a3.7,3.7,0,0,1-6.39-2.54,3.5,3.5,0,0,1,.12-.91l-1.32-.72a5.25,5.25,0,0,0-.26,1.63A5.17,5.17,0,0,0,421,303.44Z" transform="translate(-412 -288.5)"/><path class="cls-1" d="M422.92,293.49a.73.73,0,0,0-.55,1.36,3.66,3.66,0,0,1,2.3,3l1.47.81c0-.12,0-.25,0-.38a5.15,5.15,0,0,0-.91-2.92A5.2,5.2,0,0,0,422.92,293.49Z" transform="translate(-412 -288.5)"/><path class="cls-1" d="M421,291.54a.73.73,0,0,0-.73.73v3.16l1.46.81v-4A.73.73,0,0,0,421,291.54Z" transform="translate(-412 -288.5)"/></svg>