<svg id="Layer_1" data-name="Layer 1" xmlns="http://www.w3.org/2000/svg" viewBox="0 0 16.13 18"><defs><style>.cls-1{fill:#f15a5e;}</style></defs><path class="cls-1" d="M430.21,316h-9.82a1.3,1.3,0,0,1-1.3-1.3v-11.1a.52.52,0,0,1,.52-.52.52.52,0,0,1,.52.52v11.1a.26.26,0,0,0,.26.26h9.82a.25.25,0,0,0,.26-.26v-11.1a.52.52,0,0,1,.52-.52.52.52,0,0,1,.52.52v11.1A1.3,1.3,0,0,1,430.21,316Z" transform="translate(-417.24 -298.04)"/><path class="cls-1" d="M422.45,313.82a.44.44,0,0,1-.44-.44v-7.3a.44.44,0,0,1,.44-.44.44.44,0,0,1,.44.44v7.3A.44.44,0,0,1,422.45,313.82Z" transform="translate(-417.24 -298.04)"/><path class="cls-1" d="M425.3,313.82a.44.44,0,0,1-.44-.44v-7.3a.44.44,0,0,1,.44-.44.44.44,0,0,1,.44.44v7.3A.44.44,0,0,1,425.3,313.82Z" transform="translate(-417.24 -298.04)"/><path class="cls-1" d="M428.16,313.82a.44.44,0,0,1-.44-.44v-7.3a.44.44,0,1,1,.87,0v7.3A.44.44,0,0,1,428.16,313.82Z" transform="translate(-417.24 -298.04)"/><path class="cls-1" d="M432.85,300.89h-2.77v-1a1.83,1.83,0,0,0-1.82-1.82h-6a1.83,1.83,0,0,0-1.82,1.82v1h-2.71a.52.52,0,0,0,0,1h15.09a.52.52,0,1,0,0-1Zm-11.34,0v-1a.78.78,0,0,1,.78-.78h6a.78.78,0,0,1,.78.78v1Z" transform="translate(-417.24 -298.04)"/></svg>