<svg id="Layer_1" data-name="Layer 1" xmlns="http://www.w3.org/2000/svg" viewBox="0 0 114.92 114.92"><defs><style>.cls-1{fill:#f26347;}</style></defs><path class="cls-1" d="M-80.8,388.21a2.08,2.08,0,0,0-2.08,2.07v28.59a3.73,3.73,0,0,1-3.73,3.73h-23.06a3.74,3.74,0,0,1-3.74-3.73V390.28a2.07,2.07,0,0,0-2.07-2.07,2.08,2.08,0,0,0-2.08,2.07v28.59a7.9,7.9,0,0,0,7.89,7.88h23.06a7.89,7.89,0,0,0,7.88-7.88V390.28A2.07,2.07,0,0,0-80.8,388.21Z" transform="translate(155.6 -341.43)"/><path class="cls-1" d="M-76.16,379.83h-11v-5.37A3.44,3.44,0,0,0-90.63,371h-15a3.43,3.43,0,0,0-3.42,3.43v5.37h-11a2.08,2.08,0,0,0-2.08,2.08,2.08,2.08,0,0,0,2.08,2.07h44a2.08,2.08,0,0,0,2.08-2.07A2.08,2.08,0,0,0-76.16,379.83Zm-28.77,0v-4.65h13.58v4.65Z" transform="translate(155.6 -341.43)"/><path class="cls-1" d="M-100.3,412V394.94a2.07,2.07,0,0,0-2.07-2.07,2.08,2.08,0,0,0-2.08,2.07V412a2.08,2.08,0,0,0,2.08,2.08A2.08,2.08,0,0,0-100.3,412Z" transform="translate(155.6 -341.43)"/><path class="cls-1" d="M-91.84,412V394.94a2.07,2.07,0,0,0-2.07-2.07A2.08,2.08,0,0,0-96,394.94V412a2.08,2.08,0,0,0,2.08,2.08A2.08,2.08,0,0,0-91.84,412Z" transform="translate(155.6 -341.43)"/><path class="cls-1" d="M-98.14,456.35a57.52,57.52,0,0,1-57.46-57.46,57.52,57.52,0,0,1,57.46-57.46,57.53,57.53,0,0,1,57.46,57.46A57.52,57.52,0,0,1-98.14,456.35Zm0-110.61a53.21,53.21,0,0,0-53.15,53.15A53.21,53.21,0,0,0-98.14,452,53.21,53.21,0,0,0-45,398.89,53.21,53.21,0,0,0-98.14,345.74Z" transform="translate(155.6 -341.43)"/></svg>