<svg id="Layer_1" data-name="Layer 1" xmlns="http://www.w3.org/2000/svg" viewBox="0 0 35.45 26.98"><defs><style>.cls-1{fill:#687b86;}</style></defs><path class="cls-1" d="M355.93,259.56H329.14a4.34,4.34,0,0,0-4.33,4.34v18.31a4.33,4.33,0,0,0,4.33,4.33h26.78a4.34,4.34,0,0,0,4.34-4.33v-18.3A4.35,4.35,0,0,0,355.93,259.56Zm2.35,22.65a2.35,2.35,0,0,1-2.35,2.35H329.14a2.35,2.35,0,0,1-2.35-2.35v-18.3a2.36,2.36,0,0,1,2.35-2.36h26.78a2.36,2.36,0,0,1,2.36,2.36v18.3Z" transform="translate(-324.81 -259.56)"/><path class="cls-1" d="M347.16,272.83l8.67-7.78a1,1,0,1,0-1.32-1.47l-12,10.73-2.33-2.09a0,0,0,0,1,0,0l-.16-.14-9.49-8.49a1,1,0,0,0-1.32,1.48l8.77,7.84-8.73,8.18a1,1,0,0,0,0,1.4,1,1,0,0,0,.73.32,1,1,0,0,0,.67-.27l8.87-8.29,2.41,2.15a1,1,0,0,0,.66.25,1,1,0,0,0,.66-.26l2.47-2.22,8.82,8.38a1,1,0,0,0,1.36-1.44Z" transform="translate(-324.81 -259.56)"/></svg>