<svg id="Layer_1" data-name="Layer 1" xmlns="http://www.w3.org/2000/svg" viewBox="0 0 40.18 40.18"><defs><style>.cls-1{fill:#303030;}.cls-2{fill:#fff;}</style></defs><circle class="cls-1" cx="20.09" cy="20.09" r="20.09"/><circle class="cls-2" cx="23.29" cy="23.6" r="0.78"/><path class="cls-2" d="M-253.13,70.79h-6.17a1.56,1.56,0,0,1-1.57-1.56v-6.4a1.57,1.57,0,0,1,1.57-1.57H-248a1.56,1.56,0,0,1,1.56,1.57v1.56a.78.78,0,0,0,.78.78.78.78,0,0,0,.78-.78V62.83A3.13,3.13,0,0,0-248,59.7H-249V57a4.65,4.65,0,0,0-4.69-4.59A4.65,4.65,0,0,0-258.37,57V59.7h-.93a3.13,3.13,0,0,0-3.13,3.13v6.4a3.13,3.13,0,0,0,3.13,3.13h6.17a.78.78,0,0,0,.78-.78A.78.78,0,0,0-253.13,70.79ZM-256.81,57a3.09,3.09,0,0,1,3.13-3,3.08,3.08,0,0,1,3.12,3V59.7h-6.25V57Z" transform="translate(272.52 -42.27)"/><path class="cls-2" d="M-242.76,65.08a.78.78,0,0,0-1.09.18l-3.85,5.38a.41.41,0,0,1-.3.15.41.41,0,0,1-.34-.12l-2.49-2.42a.77.77,0,0,0-1.1,0,.78.78,0,0,0,0,1.1l2.49,2.44h0a2,2,0,0,0,1.39.56h.13a2,2,0,0,0,1.43-.74l0,0,3.87-5.4A.78.78,0,0,0-242.76,65.08Z" transform="translate(272.52 -42.27)"/><circle class="cls-2" cx="20.32" cy="23.6" r="0.78"/><circle class="cls-2" cx="14.46" cy="23.6" r="0.78"/><circle class="cls-2" cx="17.39" cy="23.6" r="0.78"/></svg>