<svg id="Layer_1" data-name="Layer 1" xmlns="http://www.w3.org/2000/svg" viewBox="0 0 96.58 99.77"><defs><style>.cls-1{fill:#ec6436;}.cls-2{fill:#e6f6fd;}.cls-3{fill:#5187c6;}.cls-4{fill:#485774;}.cls-5{fill:#f9df4b;}.cls-6{fill:#5aa4da;}.cls-7{fill:#a7b7d0;}.cls-8{fill:#294368;}</style></defs><path class="cls-1" d="M465,248.75a61.27,61.27,0,0,1-1.57,13.76l-.07,0a25.87,25.87,0,0,1-12.14-12.08l0-.06A60,60,0,0,1,465,248.75Z" transform="translate(-372.7 -247.56)"/><path class="cls-2" d="M411.45,298.59l-5-5c.29-1.09.62-2.17,1-3.23a60.34,60.34,0,0,1,9.32-17.62h0a61,61,0,0,1,34.45-22.39l0,.06a25.87,25.87,0,0,0,12.14,12.08l.07,0a60.31,60.31,0,0,1-11.2,23.41A61,61,0,0,1,441,297a60.25,60.25,0,0,1-17.47,9.18c-1.14.38-2.3.72-3.48,1l-4.59-4.58Z" transform="translate(-372.7 -247.56)"/><path class="cls-3" d="M455.67,315.81a7.93,7.93,0,0,0,3.06,1.9,7.8,7.8,0,0,0-5,5,7.84,7.84,0,0,0-5-5,7.89,7.89,0,0,0,5-5A7.76,7.76,0,0,0,455.67,315.81Z" transform="translate(-372.7 -247.56)"/><path class="cls-4" d="M442,305.9A7.12,7.12,0,0,1,442,316h0l-11.64,11.81-6.75-6.83a10.52,10.52,0,0,1,0-14.76A60.25,60.25,0,0,0,441,297h0a7.1,7.1,0,0,0,.94,8.9Z" transform="translate(-372.7 -247.56)"/><path class="cls-1" d="M415.48,302.62,413,312.88l-12.06-12.06,10.56-2.23Z" transform="translate(-372.7 -247.56)"/><path class="cls-4" d="M407.86,271.8a7.1,7.1,0,0,0,8.9.94,60.34,60.34,0,0,0-9.32,17.62,10.53,10.53,0,0,1-14.61-.17L386,283.44l11.81-11.64a7.12,7.12,0,0,1,10.05,0Z" transform="translate(-372.7 -247.56)"/><path class="cls-5" d="M406.63,311.57a4.32,4.32,0,0,1-3.81,4.3l-5.52.69L398,311a4.34,4.34,0,0,1,8.65.54Z" transform="translate(-372.7 -247.56)"/><path class="cls-3" d="M381.74,267.92a7.9,7.9,0,0,0,3.07,1.9,7.83,7.83,0,0,0-5,5,7.83,7.83,0,0,0-5-5,7.93,7.93,0,0,0,3.06-1.9,7.83,7.83,0,0,0,1.89-3.07A8,8,0,0,0,381.74,267.92Z" transform="translate(-372.7 -247.56)"/><circle class="cls-6" cx="64.33" cy="29.18" r="7.53"/><path class="cls-7" d="M451.24,250.41l0-.06a61,61,0,0,0-34.45,22.39h0a60.34,60.34,0,0,0-9.32,17.62c-.36,1.06-.68,2.14-1,3.23l4,4c.3-1.09.62-2.17,1-3.24a60.26,60.26,0,0,1,9.33-17.62h0a61,61,0,0,1,33.1-22,26.43,26.43,0,0,1-2.6-4.25Z" transform="translate(-372.7 -247.56)"/><path class="cls-8" d="M441.93,297.81a61.73,61.73,0,0,0,24.28-49.06,1.19,1.19,0,0,0-1.19-1.19,61.6,61.6,0,0,0-37.88,13A62.66,62.66,0,0,0,416,271.81a5.94,5.94,0,0,1-7.29-.85A8.31,8.31,0,0,0,397,271l-11.81,11.64a1.2,1.2,0,0,0,0,1.69h0L392,291a11.73,11.73,0,0,0,13.32,2.2v0a1.22,1.22,0,0,0,.31,1.16l3.44,3.44-8.42,1.78a1.19,1.19,0,0,0-.59,2l4.23,4.23a10.59,10.59,0,0,0-3.08-1.24c-.34-.07-.69-.13-1-.18a10.58,10.58,0,0,0-8.77,3,10.7,10.7,0,0,0-3.2,7.65,1.2,1.2,0,0,0,1.16,1.2l.9,0a11.42,11.42,0,0,0-2,8.34,1.19,1.19,0,0,0,1.17,1h3.26a1.2,1.2,0,0,0,0-2.39h-2.17a9.07,9.07,0,0,1,3.2-7.15,1.19,1.19,0,0,0-.76-2.08l-2.26-.06a8.41,8.41,0,0,1,2.42-4.8,8.16,8.16,0,0,1,5.75-2.4h.07l.57,0a5.48,5.48,0,0,0-2.67,4.08l-.68,5.52a1.18,1.18,0,0,0,1,1.33h.29l5.53-.68a5.52,5.52,0,0,0,4.08-2.68c0,.22,0,.43,0,.65a8.26,8.26,0,0,1-2.42,5.84,1.19,1.19,0,0,0,0,1.68,1.2,1.2,0,0,0,1.69,0l0,0a10.62,10.62,0,0,0,3-8.84c0-.33-.1-.67-.17-1a10.74,10.74,0,0,0-1.25-3.13l4.14,4.14a1.19,1.19,0,0,0,1.69,0,1.16,1.16,0,0,0,.31-.55l2-8.22,3.09,3.1a1.22,1.22,0,0,0,1.15.31l.21-.06a11.72,11.72,0,0,0,2.13,13.46l6.75,6.88a1.12,1.12,0,0,0,1.7,0l11.63-11.83a8.32,8.32,0,0,0,0-11.75,5.93,5.93,0,0,1-.87-7.25ZM463.82,250a59.45,59.45,0,0,1-1.22,10.79,24.83,24.83,0,0,1-9.61-9.57A58.9,58.9,0,0,1,463.82,250Zm-70.15,39.38-6-5.9,10.95-10.79a5.92,5.92,0,0,1,8.37,0,8.33,8.33,0,0,0,6.65,2.38,61.77,61.77,0,0,0-7.26,14.65,9.35,9.35,0,0,1-12.74-.34Zm11.65,23.09a3.16,3.16,0,0,1-2.64,2.26l-4,.5.5-4a3.15,3.15,0,1,1,6.15,1.25Zm7-1.89-9-9,7.78-1.65,3.1,3.09Zm8.13-4.67L407.8,293.24c.21-.75.44-1.49.68-2.23l0,0v0a59.89,59.89,0,0,1,37-37.7c1.69-.6,3.39-1.11,5.12-1.54a27.2,27.2,0,0,0,11.47,11.43,59.29,59.29,0,0,1-41.62,42.71Zm20.68,9.24-10.79,10.95-5.9-6a9.36,9.36,0,0,1-.21-12.89,61.53,61.53,0,0,0,14.52-7.11,8.33,8.33,0,0,0,2.38,6.65,5.92,5.92,0,0,1,0,8.37Z" transform="translate(-372.7 -247.56)"/><path class="cls-8" d="M400.76,323.05a8.34,8.34,0,0,1-1.93.22H397a1.2,1.2,0,0,0,0,2.39h1.88a10.85,10.85,0,0,0,2.48-.29,1.19,1.19,0,1,0-.55-2.32Z" transform="translate(-372.7 -247.56)"/><path class="cls-8" d="M448.74,298.41a1.11,1.11,0,0,0,.76-.27c.85-.7,1.69-1.44,2.5-2.19a1.19,1.19,0,0,0,.09-1.68,1.2,1.2,0,0,0-1.69-.09v0c-.78.72-1.59,1.43-2.41,2.1a1.2,1.2,0,0,0,.76,2.12Z" transform="translate(-372.7 -247.56)"/><path class="cls-8" d="M468.43,267a1.19,1.19,0,0,0-1.48.8h0a59.79,59.79,0,0,1-3.87,9.63c-.57,1.12-1.19,2.25-1.83,3.33-.8,1.34-1.65,2.67-2.55,3.94a58.37,58.37,0,0,1-4.62,5.77,1.19,1.19,0,1,0,1.76,1.61,61.76,61.76,0,0,0,4.81-6c.93-1.32,1.82-2.7,2.65-4.09.67-1.13,1.31-2.3,1.9-3.47a61.52,61.52,0,0,0,4-10,1.2,1.2,0,0,0-.8-1.49Z" transform="translate(-372.7 -247.56)"/><path class="cls-8" d="M374.29,296.35a1.21,1.21,0,0,0,.84-.35l.91-.92a1.19,1.19,0,0,0-1.68-1.68l-.92.91a1.21,1.21,0,0,0,0,1.69,1.22,1.22,0,0,0,.84.35Z" transform="translate(-372.7 -247.56)"/><path class="cls-8" d="M378.63,292.49l4.08-4.07a1.19,1.19,0,0,0,0-1.69,1.18,1.18,0,0,0-1.68,0L377,290.81a1.19,1.19,0,0,0,0,1.68,1.2,1.2,0,0,0,1.69,0Z" transform="translate(-372.7 -247.56)"/><path class="cls-8" d="M375.24,300.45a1.18,1.18,0,0,0,1.68,0l4.8-4.79a1.19,1.19,0,0,0,0-1.69,1.21,1.21,0,0,0-1.69,0h0l-4.79,4.8a1.18,1.18,0,0,0,0,1.68Z" transform="translate(-372.7 -247.56)"/><path class="cls-8" d="M383.22,293.66a1.15,1.15,0,0,0,.84-.35l1.78-1.77a1.2,1.2,0,0,0,0-1.69,1.19,1.19,0,0,0-1.68,0h0l-1.77,1.78a1.18,1.18,0,0,0,0,1.68A1.16,1.16,0,0,0,383.22,293.66Z" transform="translate(-372.7 -247.56)"/><path class="cls-8" d="M378.34,301.92l-5.3,5.3a1.19,1.19,0,0,0,1.69,1.68l5.3-5.3a1.19,1.19,0,0,0,0-1.68,1.2,1.2,0,0,0-1.69,0v0Z" transform="translate(-372.7 -247.56)"/><path class="cls-8" d="M389,293a1.2,1.2,0,0,0-1.68,0l-6.21,6.21a1.19,1.19,0,0,0,1.67,1.7l0,0,6.2-6.2a1.19,1.19,0,0,0,0-1.69Z" transform="translate(-372.7 -247.56)"/><path class="cls-8" d="M412.42,331.46l-.91.92a1.19,1.19,0,0,0,1.68,1.68h0l.92-.91a1.2,1.2,0,0,0-1.69-1.69Z" transform="translate(-372.7 -247.56)"/><path class="cls-8" d="M419.09,324.79,415,328.87a1.2,1.2,0,0,0,0,1.69,1.19,1.19,0,0,0,1.68,0l0,0,4.08-4.08a1.2,1.2,0,0,0-1.69-1.69Z" transform="translate(-372.7 -247.56)"/><path class="cls-8" d="M413.3,338.52a1.19,1.19,0,0,0,1.69,0l4.8-4.8a1.19,1.19,0,0,0,0-1.68,1.2,1.2,0,0,0-1.69,0l0,0-4.8,4.79a1.21,1.21,0,0,0,0,1.69Z" transform="translate(-372.7 -247.56)"/><path class="cls-8" d="M420.44,331.38a1.19,1.19,0,0,0,1.69,0h0l1.77-1.77a1.19,1.19,0,1,0-1.68-1.69l-1.78,1.77a1.21,1.21,0,0,0,0,1.69Z" transform="translate(-372.7 -247.56)"/><path class="cls-8" d="M416.41,340l-5.3,5.3a1.19,1.19,0,1,0,1.67,1.7h0l5.3-5.3a1.19,1.19,0,1,0-1.67-1.7Z" transform="translate(-372.7 -247.56)"/><path class="cls-8" d="M425.34,331.05l-6.2,6.2a1.19,1.19,0,1,0,1.67,1.7h0l6.21-6.21a1.19,1.19,0,0,0-1.67-1.7Z" transform="translate(-372.7 -247.56)"/><path class="cls-8" d="M459.11,316.58a6.68,6.68,0,0,1-4.2-4.22,1.2,1.2,0,0,0-2.27,0,6.66,6.66,0,0,1-4.2,4.22,1.19,1.19,0,0,0-.75,1.51,1.21,1.21,0,0,0,.75.75,6.66,6.66,0,0,1,4.2,4.21,1.2,1.2,0,0,0,2.27,0,6.69,6.69,0,0,1,4.2-4.21,1.19,1.19,0,0,0,0-2.26ZM453.78,320a9.3,9.3,0,0,0-2.32-2.32,9.34,9.34,0,0,0,2.32-2.33,9.14,9.14,0,0,0,2.31,2.33A9.1,9.1,0,0,0,453.78,320Z" transform="translate(-372.7 -247.56)"/><path class="cls-8" d="M374.52,271a6.69,6.69,0,0,1,4.2,4.21,1.19,1.19,0,0,0,1.51.75,1.17,1.17,0,0,0,.75-.75,6.71,6.71,0,0,1,4.2-4.21,1.2,1.2,0,0,0,.76-1.51,1.16,1.16,0,0,0-.76-.75,6.7,6.7,0,0,1-4.2-4.22,1.19,1.19,0,0,0-1.51-.75,1.21,1.21,0,0,0-.75.75,6.68,6.68,0,0,1-4.2,4.22,1.18,1.18,0,0,0-.75,1.5A1.21,1.21,0,0,0,374.52,271Zm5.33-3.46a9.18,9.18,0,0,0,2.32,2.33,9,9,0,0,0-2.32,2.32,8.83,8.83,0,0,0-2.32-2.32A9,9,0,0,0,379.85,267.49Z" transform="translate(-372.7 -247.56)"/><circle class="cls-8" cx="22.66" cy="9.74" r="2.18"/><circle class="cls-8" cx="77.31" cy="87.44" r="2.18"/><path class="cls-8" d="M437,268a8.72,8.72,0,1,0,6.17,2.55A8.72,8.72,0,0,0,437,268Zm4.48,13.2a6.34,6.34,0,1,1,0-9h0A6.34,6.34,0,0,1,441.51,281.22Z" transform="translate(-372.7 -247.56)"/></svg>