<svg id="setting" data-name="Layer 1" xmlns="http://www.w3.org/2000/svg" viewBox="0 0 29.13 33"><defs><style>.cls-1{fill:#687b86;}</style></defs><path class="cls-1" d="M364.43,298a7.37,7.37,0,0,0-.67-.4l-.33-.16-.5-1.2.12-.34a6.92,6.92,0,0,0,.19-.76,1,1,0,0,0-.26-.86L361.62,293a1,1,0,0,0-.86-.26,5.19,5.19,0,0,0-.76.19,2,2,0,0,0-.34.12l-1.21-.51a3,3,0,0,0-.15-.32c-.14-.26-.31-.53-.4-.67a1,1,0,0,0-.8-.42h-1.92a1,1,0,0,0-.79.42,5.61,5.61,0,0,0-.4.67c-.06.11-.11.22-.16.32l-1.21.51a1.7,1.7,0,0,0-.34-.12,4.9,4.9,0,0,0-.76-.19,1,1,0,0,0-.85.26l-1.36,1.36a1,1,0,0,0-.27.86c0,.16.11.48.19.76l.12.34-.5,1.2-.32.16a6.19,6.19,0,0,0-.67.4,1,1,0,0,0-.42.79v1.93a1,1,0,0,0,.42.79,4.9,4.9,0,0,0,.67.4l.32.16.5,1.21c0,.1-.08.22-.12.34-.08.27-.16.59-.19.75a1,1,0,0,0,.27.86l1.36,1.36a1,1,0,0,0,.85.27,6.77,6.77,0,0,0,.76-.2l.34-.11,1.21.5c.05.1.1.21.16.32a5.61,5.61,0,0,0,.4.67,1,1,0,0,0,.79.42h1.92a1,1,0,0,0,.8-.42c.09-.14.26-.41.4-.67a3,3,0,0,0,.15-.32l1.21-.5.34.11a7.38,7.38,0,0,0,.76.2,1,1,0,0,0,.86-.27l1.36-1.36a1,1,0,0,0,.26-.86,6.32,6.32,0,0,0-.19-.75c0-.12-.08-.24-.12-.34l.5-1.21.33-.16a5.61,5.61,0,0,0,.67-.4,1,1,0,0,0,.41-.79v-1.93A1,1,0,0,0,364.43,298Zm-1.52,2.17-.26.13a1,1,0,0,0-.82.59L361,303a1,1,0,0,0,.16,1,1.68,1.68,0,0,1,.09.27l-.59.58-.27-.09a1,1,0,0,0-1-.16l-2.08.86a1,1,0,0,0-.59.83l-.13.25h-.83a2.05,2.05,0,0,1-.13-.25,1,1,0,0,0-.59-.83l-2.08-.86a1,1,0,0,0-1,.16,1.68,1.68,0,0,1-.27.09l-.59-.58c0-.11.07-.21.1-.27a1,1,0,0,0,.16-1l-.86-2.08a1,1,0,0,0-.83-.59l-.25-.13v-.83l.25-.13a1,1,0,0,0,.83-.59l.86-2.08a1,1,0,0,0-.16-1c0-.07-.06-.17-.1-.28l.59-.58a1.68,1.68,0,0,1,.27.09,1,1,0,0,0,1,.16l2.08-.86a1,1,0,0,0,.59-.83c0-.06.07-.15.13-.25h.83l.13.25a1,1,0,0,0,.59.83l2.08.86a1,1,0,0,0,1-.16l.27-.09.59.58a2.34,2.34,0,0,1-.09.28.93.93,0,0,0-.16,1l.86,2.08a1,1,0,0,0,.82.59l.26.13Z" transform="translate(-341.58 -283.29)"/><path class="cls-1" d="M356.14,283.29a2.9,2.9,0,0,0-2.81,2.2,14.58,14.58,0,0,0-11.75,14.3,1,1,0,0,0,1.93,0,12.62,12.62,0,0,1,10-12.36,2.9,2.9,0,1,0,2.62-4.14Zm0,3.86a1,1,0,1,1,1-1A1,1,0,0,1,356.14,287.15Z" transform="translate(-341.58 -283.29)"/><path class="cls-1" d="M356.14,295.92a3.87,3.87,0,1,0,3.87,3.87A3.86,3.86,0,0,0,356.14,295.92Zm0,5.8a1.94,1.94,0,1,1,1.94-1.93A1.94,1.94,0,0,1,356.14,301.72Z" transform="translate(-341.58 -283.29)"/><path class="cls-1" d="M369.74,298.82a1,1,0,0,0-1,1,12.67,12.67,0,0,1-10,12.36,2.89,2.89,0,1,0,.2,1.93,14.58,14.58,0,0,0,11.75-14.29A1,1,0,0,0,369.74,298.82Zm-13.6,15.53a1,1,0,1,1,1-1A1,1,0,0,1,356.14,314.35Z" transform="translate(-341.58 -283.29)"/></svg>
