<svg id="Layer_1" data-name="Layer 1" xmlns="http://www.w3.org/2000/svg" viewBox="0 0 96 96"><defs><style>.cls-1{fill:#303030;}.cls-2{fill:none;stroke:#8e8e8e;stroke-miterlimit:10;stroke-width:2px;}</style></defs><path class="cls-1" d="M443.43,281.11H406.69a4.63,4.63,0,0,0-4.62,4.62v5.91h-6.49a1,1,0,0,0-.74.3,1.08,1.08,0,0,0-.31.75,1,1,0,0,0,1.05,1.05h6.49v2.71H386.89a1,1,0,0,0-.74.3,1.08,1.08,0,0,0-.31.75,1,1,0,0,0,1.05,1.05h15.18v10.72a4.62,4.62,0,0,0,4.62,4.62h36.74a4.61,4.61,0,0,0,4.62-4.62V285.73A4.62,4.62,0,0,0,443.43,281.11ZM442,283.22l-15.2,15.2a2.51,2.51,0,0,1-3.55,0l-6.11-6.11h4.42a1.06,1.06,0,0,0,0-2.11h-6.53L412.9,288h13.48a1.06,1.06,0,0,0,0-2.11H410.79l-2.71-2.7Zm-37.86,26V285.73a2.53,2.53,0,0,1,1.26-2.18l12.94,12.95-13.92,13.92A2.44,2.44,0,0,1,404.18,309.27Zm39.25,2.51H406.69a2.51,2.51,0,0,1-.55-.06L419.87,298l1.92,1.92a4.64,4.64,0,0,0,6.54,0l1.92-1.92,8.55,8.54h-8.63a1.06,1.06,0,1,0,0,2.11H440.9l3.09,3.08A2.6,2.6,0,0,1,443.43,311.78Zm2.52-2.51a2.5,2.5,0,0,1-.28,1.15L431.74,296.5l12.95-12.95a2.53,2.53,0,0,1,1.26,2.18Z" transform="translate(-373 -249.5)"/><path class="cls-1" d="M430,288a1.06,1.06,0,0,0,1.05-1,1.06,1.06,0,0,0-.31-.75,1.05,1.05,0,0,0-1.49,0,1.06,1.06,0,0,0-.31.75,1,1,0,0,0,.31.74A1.06,1.06,0,0,0,430,288Z" transform="translate(-373 -249.5)"/><path class="cls-1" d="M391.71,293.74a1,1,0,0,0,1.05-1.05,1.05,1.05,0,1,0-2.1,0,1,1,0,0,0,1,1.05Z" transform="translate(-373 -249.5)"/><path class="cls-1" d="M398.48,301.26H391.7a1,1,0,0,0-.74.3,1.08,1.08,0,0,0-.31.75,1,1,0,0,0,1.05,1.05h6.78a1.05,1.05,0,0,0,0-2.1Z" transform="translate(-373 -249.5)"/><circle class="cls-2" cx="48" cy="48" r="47"/></svg>